<?xml version="1.0" encoding="UTF-8"?>
<svg xmlns="http://www.w3.org/2000/svg" xmlns:xlink="http://www.w3.org/1999/xlink" width="20pt" height="20pt" viewBox="0 0 20 20" version="1.1">
<g id="surface1">
<path style=" stroke:none;fill-rule:nonzero;fill:rgb(0%,46.666667%,71.764706%);fill-opacity:1;" d="M 18.191406 0 L 1.808594 0 C 0.808594 0 0 0.808594 0 1.808594 L 0 18.191406 C 0 19.191406 0.808594 20 1.808594 20 L 18.191406 20 C 19.191406 20 20 19.191406 20 18.191406 L 20 1.808594 C 20 0.808594 19.191406 0 18.191406 0 Z M 6.1875 17.269531 C 6.1875 17.558594 5.953125 17.796875 5.664062 17.796875 L 3.421875 17.796875 C 3.128906 17.796875 2.894531 17.558594 2.894531 17.269531 L 2.894531 7.875 C 2.894531 7.582031 3.128906 7.347656 3.421875 7.347656 L 5.664062 7.347656 C 5.953125 7.347656 6.1875 7.582031 6.1875 7.875 Z M 4.542969 6.460938 C 3.367188 6.460938 2.414062 5.507812 2.414062 4.332031 C 2.414062 3.15625 3.367188 2.203125 4.542969 2.203125 C 5.71875 2.203125 6.671875 3.15625 6.671875 4.332031 C 6.671875 5.507812 5.71875 6.460938 4.542969 6.460938 Z M 17.902344 17.3125 C 17.902344 17.578125 17.683594 17.796875 17.417969 17.796875 L 15.011719 17.796875 C 14.746094 17.796875 14.527344 17.578125 14.527344 17.3125 L 14.527344 12.90625 C 14.527344 12.246094 14.722656 10.023438 12.808594 10.023438 C 11.328125 10.023438 11.027344 11.546875 10.96875 12.230469 L 10.96875 17.3125 C 10.96875 17.578125 10.75 17.796875 10.484375 17.796875 L 8.15625 17.796875 C 7.890625 17.796875 7.671875 17.578125 7.671875 17.3125 L 7.671875 7.832031 C 7.671875 7.566406 7.890625 7.347656 8.15625 7.347656 L 10.484375 7.347656 C 10.75 7.347656 10.96875 7.566406 10.96875 7.832031 L 10.96875 8.652344 C 11.515625 7.828125 12.332031 7.191406 14.070312 7.191406 C 17.921875 7.191406 17.902344 10.789062 17.902344 12.765625 Z M 17.902344 17.3125 "/>
</g>
</svg>
