<?xml version="1.0" encoding="UTF-8"?>
<svg xmlns="http://www.w3.org/2000/svg" xmlns:xlink="http://www.w3.org/1999/xlink" width="20pt" height="20pt" viewBox="0 0 20 20" version="1.1">
<g id="surface1">
<path style=" stroke:none;fill-rule:nonzero;fill:rgb(91.764706%,8.627451%,24.705882%);fill-opacity:1;" d="M 18.851562 4.402344 C 18.160156 3.578125 16.878906 3.242188 14.4375 3.242188 L 5.5625 3.242188 C 3.0625 3.242188 1.761719 3.601562 1.070312 4.476562 C 0.398438 5.332031 0.398438 6.59375 0.398438 8.335938 L 0.398438 11.664062 C 0.398438 15.042969 1.195312 16.757812 5.5625 16.757812 L 14.4375 16.757812 C 16.554688 16.757812 17.730469 16.460938 18.488281 15.734375 C 19.269531 14.988281 19.601562 13.769531 19.601562 11.664062 L 19.601562 8.335938 C 19.601562 6.5 19.550781 5.230469 18.851562 4.402344 Z M 12.726562 10.460938 L 8.699219 12.566406 C 8.609375 12.613281 8.507812 12.636719 8.410156 12.636719 C 8.300781 12.636719 8.1875 12.605469 8.089844 12.546875 C 7.90625 12.433594 7.792969 12.230469 7.792969 12.015625 L 7.792969 7.816406 C 7.792969 7.601562 7.90625 7.402344 8.089844 7.289062 C 8.273438 7.175781 8.503906 7.167969 8.695312 7.269531 L 12.726562 9.359375 C 12.929688 9.464844 13.058594 9.679688 13.058594 9.910156 C 13.058594 10.140625 12.929688 10.351562 12.726562 10.460938 Z M 12.726562 10.460938 "/>
<path style=" stroke:none;fill-rule:nonzero;fill:rgb(61.176471%,5.490196%,16.862745%);fill-opacity:1;" d="M 14.4375 17.15625 L 5.5625 17.15625 C 3.328125 17.15625 1.890625 16.707031 1.042969 15.738281 C 0.125 14.691406 0 13.160156 0 11.664062 L 0 8.335938 C 0 6.511719 0 5.195312 0.757812 4.230469 C 1.535156 3.246094 2.925781 2.84375 5.5625 2.84375 L 14.4375 2.84375 C 17.011719 2.84375 18.378906 3.222656 19.15625 4.144531 C 19.941406 5.078125 20 6.410156 20 8.335938 L 20 11.664062 C 20 13.890625 19.628906 15.191406 18.765625 16.019531 C 17.921875 16.828125 16.667969 17.15625 14.4375 17.15625 Z M 5.5625 3.640625 C 3.199219 3.640625 1.992188 3.953125 1.382812 4.722656 C 0.796875 5.472656 0.796875 6.671875 0.796875 8.335938 L 0.796875 11.664062 C 0.796875 14.910156 1.484375 16.359375 5.5625 16.359375 L 14.4375 16.359375 C 16.441406 16.359375 17.535156 16.09375 18.214844 15.445312 C 18.90625 14.78125 19.203125 13.652344 19.203125 11.664062 L 19.203125 8.335938 C 19.203125 6.585938 19.15625 5.382812 18.546875 4.660156 C 17.941406 3.9375 16.75 3.640625 14.4375 3.640625 Z M 8.410156 13.035156 C 8.226562 13.035156 8.042969 12.984375 7.882812 12.886719 C 7.582031 12.703125 7.394531 12.371094 7.394531 12.015625 L 7.394531 7.816406 C 7.394531 7.464844 7.582031 7.132812 7.882812 6.949219 C 8.183594 6.765625 8.566406 6.75 8.878906 6.914062 L 12.910156 9.007812 C 13.246094 9.183594 13.457031 9.527344 13.457031 9.910156 C 13.457031 10.289062 13.25 10.636719 12.910156 10.8125 L 8.882812 12.917969 C 8.738281 12.992188 8.574219 13.035156 8.410156 13.035156 Z M 8.410156 7.597656 C 8.371094 7.597656 8.332031 7.609375 8.296875 7.628906 C 8.230469 7.667969 8.191406 7.742188 8.191406 7.816406 L 8.191406 12.015625 C 8.191406 12.09375 8.230469 12.164062 8.296875 12.203125 C 8.359375 12.242188 8.445312 12.246094 8.511719 12.210938 L 12.542969 10.105469 C 12.617188 10.066406 12.660156 9.992188 12.660156 9.910156 C 12.660156 9.828125 12.617188 9.75 12.542969 9.714844 L 8.511719 7.621094 C 8.480469 7.605469 8.445312 7.597656 8.410156 7.597656 Z M 8.410156 7.597656 "/>
<path style=" stroke:none;fill-rule:nonzero;fill:rgb(61.176471%,5.490196%,16.862745%);fill-opacity:1;" d="M 13.347656 15.9375 L 12.988281 15.9375 C 12.769531 15.9375 12.589844 15.757812 12.589844 15.539062 C 12.589844 15.316406 12.769531 15.140625 12.988281 15.140625 L 13.347656 15.140625 C 13.566406 15.140625 13.746094 15.316406 13.746094 15.539062 C 13.746094 15.757812 13.566406 15.9375 13.347656 15.9375 Z M 13.347656 15.9375 "/>
<path style=" stroke:none;fill-rule:nonzero;fill:rgb(61.176471%,5.490196%,16.862745%);fill-opacity:1;" d="M 11.433594 15.9375 L 5.140625 15.9375 C 4.917969 15.9375 4.742188 15.757812 4.742188 15.539062 C 4.742188 15.316406 4.917969 15.140625 5.140625 15.140625 L 11.433594 15.140625 C 11.652344 15.140625 11.832031 15.316406 11.832031 15.539062 C 11.832031 15.757812 11.65625 15.9375 11.433594 15.9375 Z M 11.433594 15.9375 "/>
</g>
</svg>
